<svg width="20" height="20" viewBox="0 0 20 20" fill="none" xmlns="http://www.w3.org/2000/svg">
<path d="M10 0C9.24224 0 8.51551 0.30102 7.97969 0.836838C7.44388 1.37266 7.14286 2.09938 7.14286 2.85714V17.1429C7.14286 17.9006 7.44388 18.6273 7.97969 19.1632C8.51551 19.699 9.24224 20 10 20C10.7578 20 11.4845 19.699 12.0203 19.1632C12.5561 18.6273 12.8571 17.9006 12.8571 17.1429V2.85714C12.8571 2.09938 12.5561 1.37266 12.0203 0.836838C11.4845 0.30102 10.7578 0 10 0ZM11.4286 2.85714V17.1429C11.4286 17.5217 11.2781 17.8851 11.0102 18.153C10.7422 18.4209 10.3789 18.5714 10 18.5714C9.62112 18.5714 9.25776 18.4209 8.98985 18.153C8.72194 17.8851 8.57143 17.5217 8.57143 17.1429V2.85714C8.57143 2.47826 8.72194 2.1149 8.98985 1.84699C9.25776 1.57908 9.62112 1.42857 10 1.42857C10.3789 1.42857 10.7422 1.57908 11.0102 1.84699C11.2781 2.1149 11.4286 2.47826 11.4286 2.85714ZM2.85714 8.57143C2.09938 8.57143 1.37266 8.87245 0.836838 9.40827C0.30102 9.94409 0 10.6708 0 11.4286V17.1429C0 17.9006 0.30102 18.6273 0.836838 19.1632C1.37266 19.699 2.09938 20 2.85714 20C3.6149 20 4.34163 19.699 4.87745 19.1632C5.41327 18.6273 5.71429 17.9006 5.71429 17.1429V11.4286C5.71429 10.6708 5.41327 9.94409 4.87745 9.40827C4.34163 8.87245 3.6149 8.57143 2.85714 8.57143ZM4.28571 17.1429C4.28571 17.5217 4.1352 17.8851 3.8673 18.153C3.59939 18.4209 3.23602 18.5714 2.85714 18.5714C2.47826 18.5714 2.1149 18.4209 1.84699 18.153C1.57908 17.8851 1.42857 17.5217 1.42857 17.1429V11.4286C1.42857 11.0497 1.57908 10.6863 1.84699 10.4184C2.1149 10.1505 2.47826 10 2.85714 10C3.23602 10 3.59939 10.1505 3.8673 10.4184C4.1352 10.6863 4.28571 11.0497 4.28571 11.4286V17.1429ZM14.2857 8.57143C14.2857 7.81367 14.5867 7.08694 15.1226 6.55112C15.6584 6.01531 16.3851 5.71429 17.1429 5.71429C17.9006 5.71429 18.6273 6.01531 19.1632 6.55112C19.699 7.08694 20 7.81367 20 8.57143V17.1429C20 17.9006 19.699 18.6273 19.1632 19.1632C18.6273 19.699 17.9006 20 17.1429 20C16.3851 20 15.6584 19.699 15.1226 19.1632C14.5867 18.6273 14.2857 17.9006 14.2857 17.1429V8.57143ZM18.5714 8.57143C18.5714 8.19255 18.4209 7.82919 18.153 7.56128C17.8851 7.29337 17.5217 7.14286 17.1429 7.14286C16.764 7.14286 16.4006 7.29337 16.1327 7.56128C15.8648 7.82919 15.7143 8.19255 15.7143 8.57143V17.1429C15.7143 17.5217 15.8648 17.8851 16.1327 18.153C16.4006 18.4209 16.764 18.5714 17.1429 18.5714C17.5217 18.5714 17.8851 18.4209 18.153 18.153C18.4209 17.8851 18.5714 17.5217 18.5714 17.1429V8.57143Z" fill="white"/>
</svg>
